<svg width="1292" height="118" viewBox="0 0 1292 118" fill="none" xmlns="http://www.w3.org/2000/svg">
<path d="M7.35156 108.5V39L35.3516 11H1285.35V81.5L1258.35 108.5H7.35156Z" fill="#25C8F3" fill-opacity="0.17"/>
<path d="M1286.35 10V81.9141L1258.77 109.5H6.35156V38.5859L34.9375 10H1286.35ZM8.35156 39.4141V107.5H1257.94L1284.35 81.0859V12H35.7656L8.35156 39.4141Z" fill="#25C8F3"/>
<path d="M1291.7 86.3555L1260.66 117H952.852V116H1260.25L1291 85.6445L1291.7 86.3555Z" fill="#25C8F3"/>
<path d="M1279.41 99.6592L1261.07 118H1077.35V115H1259.83L1277.29 97.5381L1279.41 99.6592Z" fill="#25C8F3"/>
<path d="M12.291 18.3408L30.6318 0H214.352V3H31.874L14.4121 20.4619L12.291 18.3408Z" fill="#25C8F3"/>
<path d="M0 31.6445L31.0479 1H506.352V2H31.458L0.703125 32.3555L0 31.6445Z" fill="#25C8F3"/>
<path d="M1218.35 94.5H1221.35V101.5H1218.35V94.5Z" fill="#25C8F3"/>
<path d="M1176.35 94.5H1179.35V101.5H1176.35V94.5Z" fill="#25C8F3"/>
<path d="M1225.35 94.5H1228.35V101.5H1225.35V94.5Z" fill="#25C8F3"/>
<path d="M1183.35 94.5H1186.35V101.5H1183.35V94.5Z" fill="#25C8F3"/>
<path d="M1232.35 94.5H1235.35V101.5H1232.35V94.5Z" fill="#25C8F3"/>
<path d="M1190.35 94.5H1193.35V101.5H1190.35V94.5Z" fill="#25C8F3"/>
<path d="M1239.35 94.5H1242.35V101.5H1239.35V94.5Z" fill="#25C8F3"/>
<path d="M1197.35 94.5H1200.35V101.5H1197.35V94.5Z" fill="#25C8F3"/>
<path d="M1246.35 94.5H1249.35V101.5H1246.35V94.5Z" fill="#25C8F3"/>
<path d="M1204.35 94.5H1207.35V101.5H1204.35V94.5Z" fill="#25C8F3"/>
<path d="M1253.35 94.5H1256.35V101.5H1253.35V94.5Z" fill="#25C8F3"/>
<path d="M1211.35 94.5H1214.35V101.5H1211.35V94.5Z" fill="#25C8F3"/>
</svg>
